<?xml version="1.0" standalone="no"?>
<svg viewBox="0 0 200 200" xmlns="http://www.w3.org/2000/svg">
  <path fill="#D0E2FF" d="M20.7,-35.7C28.7,-31.1,38.5,-29.5,50.7,-24C62.8,-18.6,77.4,-9.3,81.2,2.2C85.1,13.7,78.1,27.4,70.2,40.3C62.3,53.2,53.5,65.2,41.6,67C29.8,68.8,14.9,60.3,1.7,57.3C-11.4,54.3,-22.8,56.7,-33.9,54.5C-45.1,52.3,-56,45.5,-63.8,35.6C-71.6,25.8,-76.3,12.9,-71.7,2.7C-67.1,-7.5,-53.1,-15.1,-44.7,-24C-36.4,-32.9,-33.7,-43.2,-27.1,-48.7C-20.6,-54.2,-10.3,-54.8,-2,-51.4C6.3,-47.9,12.6,-40.3,20.7,-35.7Z" transform="translate(100 100)" />
</svg>
