<svg width="51" height="49" viewBox="0 0 51 49" fill="none" xmlns="http://www.w3.org/2000/svg">
<path d="M9.3263 12.478C9.53474 8.72611 10.7928 6.20598 12.2817 4.57973C14.585 2.06403 19.0876 2.01198 20.2036 5.23504C20.9492 7.38806 20.8826 10.2345 19.7609 12.478C17.6739 16.6518 8.80457 21.8691 9.3263 12.478Z" fill="#304057" stroke="#304057" stroke-width="2"/>
<path d="M25.8175 11.4346C26.0259 7.68265 27.284 5.16252 28.7729 3.53627C31.0762 1.02057 35.5788 0.968522 36.6949 4.19158C37.4404 6.3446 37.3738 9.19106 36.2521 11.4346C34.1652 15.6084 25.2958 20.8257 25.8175 11.4346Z" fill="#304057" stroke="#304057" stroke-width="2"/>
<path d="M34.857 19.2602C37.0173 16.1856 39.4174 14.7114 41.541 14.118C44.826 13.2001 48.6756 15.5361 47.9192 18.862C47.4139 21.0837 45.8526 23.4648 43.7145 24.7762C39.7366 27.216 29.4498 26.9561 34.857 19.2602Z" fill="#304057" stroke="#304057" stroke-width="2"/>
<path d="M34.036 33.1786C36.9211 30.771 39.6219 29.9713 41.8267 29.9502C45.2373 29.9175 48.3475 33.1738 46.7527 36.1888C45.6874 38.2028 43.561 40.0963 41.1555 40.807C36.6802 42.1291 26.8145 39.2047 34.036 33.1786Z" fill="#304057" stroke="#304057" stroke-width="2"/>
<path d="M5.44801 23.956C3.80886 24.639 2.87006 25.5269 2.39754 26.4734C0.706478 29.8606 4.75301 33.2396 8.34635 34.4315C11.1521 35.3622 13.5197 35.9765 14.5215 40.6513C15.0432 47.9555 23.7085 50.0424 25.2737 45.3469C30.491 33.3472 28.4041 27.0864 23.7085 23.4343C19.013 19.7822 11.7087 21.3474 5.44801 23.956Z" fill="#304057" stroke="#304057" stroke-width="2"/>
</svg>
